<svg width="24" height="24" viewBox="0 0 24 24" fill="none" xmlns="http://www.w3.org/2000/svg">
<ellipse cx="12" cy="13" rx="7" ry="8" fill="white"/>
<path d="M22.5601 16.3001L14.8901 3.58006C14.58 3.09488 14.1527 2.69558 13.6476 2.419C13.1425 2.14241 12.5759 1.99744 12.0001 1.99744C11.4243 1.99744 10.8577 2.14241 10.3526 2.419C9.84755 2.69558 9.42024 3.09488 9.1101 3.58006L1.4401 16.3001C1.16915 16.7517 1.02189 17.2667 1.01311 17.7934C1.00434 18.32 1.13436 18.8396 1.3901 19.3001C1.68578 19.8183 2.11376 20.2488 2.6303 20.5475C3.14684 20.8462 3.73343 21.0023 4.3301 21.0001H19.6701C20.2629 21.0064 20.8468 20.8562 21.363 20.5648C21.8792 20.2733 22.3093 19.8509 22.6101 19.3401C22.8734 18.8748 23.0075 18.3477 22.9987 17.8133C22.9899 17.2788 22.8385 16.7564 22.5601 16.3001V16.3001ZM12.0001 17.0001C11.8023 17.0001 11.609 16.9414 11.4445 16.8315C11.2801 16.7216 11.1519 16.5655 11.0762 16.3827C11.0005 16.2 10.9807 15.999 11.0193 15.805C11.0579 15.611 11.1531 15.4328 11.293 15.293C11.4328 15.1531 11.611 15.0579 11.805 15.0193C11.999 14.9807 12.2001 15.0005 12.3828 15.0762C12.5655 15.1519 12.7217 15.28 12.8316 15.4445C12.9415 15.6089 13.0001 15.8023 13.0001 16.0001C13.0001 16.2653 12.8947 16.5196 12.7072 16.7072C12.5197 16.8947 12.2653 17.0001 12.0001 17.0001ZM13.0001 13.0001C13.0001 13.2653 12.8947 13.5196 12.7072 13.7072C12.5197 13.8947 12.2653 14.0001 12.0001 14.0001C11.7349 14.0001 11.4805 13.8947 11.293 13.7072C11.1055 13.5196 11.0001 13.2653 11.0001 13.0001V9.00006C11.0001 8.73484 11.1055 8.48049 11.293 8.29295C11.4805 8.10542 11.7349 8.00006 12.0001 8.00006C12.2653 8.00006 12.5197 8.10542 12.7072 8.29295C12.8947 8.48049 13.0001 8.73484 13.0001 9.00006V13.0001Z" fill="#B32C2C"/>
</svg>
