<svg width="60" height="60" viewBox="0 0 60 60" fill="none" xmlns="http://www.w3.org/2000/svg">
<circle cx="30" cy="30" r="30" fill="#12BE57"/>
<rect x="13" y="18" width="34" height="34" fill="white"/>
<path d="M60 30C60 25.7957 57.8681 22.0896 54.6256 19.9032C55.3718 16.0658 54.2587 11.9383 51.2865 8.96354C48.3142 5.99127 44.1867 4.87822 40.3468 5.62439C38.1604 2.38191 34.4543 0.25 30.25 0.25C26.0457 0.25 22.3396 2.38191 20.1532 5.62439C16.3158 4.87822 12.1858 5.99127 9.21354 8.96354C6.24127 11.9358 5.12822 16.0633 5.87439 19.9032C2.63191 22.0896 0.5 25.7957 0.5 30C0.5 34.2043 2.63191 37.9104 5.87439 40.0968C5.12822 43.9342 6.24127 48.0642 9.21354 51.0365C12.1858 54.0087 16.3133 55.1218 20.1532 54.3756C22.3396 57.6181 26.0457 59.75 30.25 59.75C34.4543 59.75 38.1604 57.6181 40.3468 54.3756C44.1842 55.1218 48.3142 54.0087 51.2865 51.0365C54.2587 48.0642 55.3718 43.9367 54.6256 40.0968C57.8681 37.9104 60 34.2043 60 30ZM30.0269 38.4756C29.0675 39.4349 27.8057 39.9134 26.539 39.9134C25.2722 39.9134 23.9981 39.43 23.0288 38.4632L16.1323 31.7799L19.5855 28.2176L26.5092 34.9282L40.9095 20.7956L44.39 24.3281L30.0269 38.4756Z" fill="#12BE57"/>
</svg>
