<svg width="81" height="80" viewBox="0 0 81 80" fill="none" xmlns="http://www.w3.org/2000/svg">
<g clip-path="url(#clip0_1366_7844)">
<rect x="0.5" width="80" height="80" rx="40" fill="#BFC6FF"/>
<path d="M39.9392 82C48.5412 82 56.4517 79.074 62.8034 74.2057C62.0976 73.642 61.3644 73.1133 60.6066 72.6217L60.242 72.4457C57.9233 71.6676 55.9274 70.1436 54.566 68.1117L53.3529 66.2857H50.5966L49.528 62.024C52.0737 59.1546 53.554 55.4146 53.9657 53.2146C56.8446 51.0806 57.2249 42.8117 57.2249 42.7143C57.2249 41.2591 56.766 39.3357 55.6283 38.1949C56.4392 36.7146 57.0992 34.6717 57.2092 32.3806L58.7963 30.7934V30.1429C58.7963 23.3417 52.1869 16 41.5106 16C35.4134 16 32.4277 18.1591 31.3214 19.2246C28.3043 19.8406 24.2249 23.8666 24.2249 28.5714L24.2154 30.0894C24.1872 33.8546 24.2437 36.3123 24.5706 37.9057C23.194 38.9837 22.6534 41.1271 22.6534 42.7143C22.6534 42.8086 23.0337 51.0806 25.9126 53.2146C26.3243 55.4146 27.8046 59.1546 30.3472 62.024L29.2849 66.2857H26.5286L25.3154 68.1086C23.9609 70.1357 21.9463 71.6757 19.3597 72.5714C18.3446 73.1497 17.6154 73.7029 17.1157 74.2371C23.6608 79.2681 31.6839 81.997 39.9392 82Z" fill="url(#paint0_linear_1366_7844)"/>
</g>
<defs>
<linearGradient id="paint0_linear_1366_7844" x1="39.9596" y1="16" x2="39.9596" y2="82" gradientUnits="userSpaceOnUse">
<stop stop-color="#6661A4"/>
<stop offset="1" stop-color="#6661A4" stop-opacity="0.7"/>
</linearGradient>
<clipPath id="clip0_1366_7844">
<rect x="0.5" width="80" height="80" rx="40" fill="white"/>
</clipPath>
</defs>
</svg>
