<svg width="26" height="26" viewBox="0 0 26 26" fill="none" xmlns="http://www.w3.org/2000/svg">
<g clip-path="url(#clip0_2604_12072)">
<path d="M14.0337 1.5924C14.0337 1.31736 14.143 1.05359 14.3375 0.859108C14.532 0.664626 14.7957 0.555367 15.0708 0.555367C17.8202 0.558386 20.4562 1.65195 22.4004 3.59611C24.3446 5.54028 25.4381 8.17627 25.4411 10.9257C25.4411 11.2008 25.3319 11.4646 25.1374 11.659C24.9429 11.8535 24.6791 11.9628 24.4041 11.9628C24.1291 11.9628 23.8653 11.8535 23.6708 11.659C23.4763 11.4646 23.3671 11.2008 23.3671 10.9257C23.3646 8.72618 22.4897 6.61742 20.9344 5.0621C19.3791 3.50678 17.2703 2.63191 15.0708 2.62944C14.7957 2.62944 14.532 2.52018 14.3375 2.3257C14.143 2.13122 14.0337 1.86744 14.0337 1.5924ZM15.0708 6.77759C16.1709 6.77759 17.226 7.21462 18.004 7.99255C18.7819 8.77048 19.2189 9.82558 19.2189 10.9257C19.2189 11.2008 19.3282 11.4646 19.5227 11.659C19.7171 11.8535 19.9809 11.9628 20.256 11.9628C20.531 11.9628 20.7948 11.8535 20.9893 11.659C21.1837 11.4646 21.293 11.2008 21.293 10.9257C21.2913 9.27601 20.6353 7.69432 19.4687 6.52778C18.3022 5.36124 16.7205 4.70516 15.0708 4.70351C14.7957 4.70351 14.532 4.81277 14.3375 5.00726C14.143 5.20174 14.0337 5.46551 14.0337 5.74055C14.0337 6.01559 14.143 6.27937 14.3375 6.47385C14.532 6.66833 14.7957 6.77759 15.0708 6.77759ZM24.5005 17.9143C25.1015 18.517 25.439 19.3333 25.439 20.1844C25.439 21.0355 25.1015 21.8518 24.5005 22.4545L23.5568 23.5423C15.0635 31.6737 -5.60464 11.0108 2.40129 2.49048L3.59388 1.45344C4.1972 0.869254 5.00625 0.546085 5.84602 0.553848C6.68578 0.561611 7.48873 0.899682 8.08114 1.49492C8.11329 1.52707 10.0349 4.02322 10.0349 4.02322C10.6051 4.62224 10.9225 5.41796 10.9212 6.24497C10.9198 7.07198 10.5998 7.86666 10.0277 8.46381L8.82677 9.97374C9.49135 11.5885 10.4685 13.0561 11.702 14.2921C12.9355 15.528 14.401 16.5081 16.0145 17.176L17.5337 15.9678C18.131 15.3961 18.9255 15.0765 19.7523 15.0753C20.579 15.0742 21.3745 15.3916 21.9733 15.9616C21.9733 15.9616 24.4684 17.8822 24.5005 17.9143ZM23.0736 19.4222C23.0736 19.4222 20.592 17.513 20.5598 17.4808C20.3462 17.269 20.0575 17.1502 19.7566 17.1502C19.4558 17.1502 19.1671 17.269 18.9534 17.4808C18.9254 17.5099 16.8337 19.1764 16.8337 19.1764C16.6928 19.2886 16.525 19.3621 16.347 19.3898C16.169 19.4174 15.9868 19.3982 15.8185 19.334C13.7283 18.5558 11.8298 17.3375 10.2515 15.7615C8.67322 14.1856 7.45207 12.2889 6.67077 10.1998C6.60149 10.0292 6.57891 9.84316 6.60534 9.6609C6.63176 9.47864 6.70625 9.30671 6.82114 9.16277C6.82114 9.16277 8.48766 7.07003 8.51566 7.04307C8.72749 6.82943 8.84635 6.54075 8.84635 6.23988C8.84635 5.93902 8.72749 5.65034 8.51566 5.4367C8.48351 5.40559 6.57432 2.92189 6.57432 2.92189C6.35748 2.72745 6.07448 2.62332 5.78332 2.63084C5.49217 2.63836 5.21492 2.75696 5.0084 2.96233L3.81581 3.99937C-2.03516 11.0346 15.8755 27.9518 22.0407 22.1257L22.9854 21.0368C23.2068 20.8318 23.3398 20.5487 23.3562 20.2474C23.3727 19.946 23.2713 19.6501 23.0736 19.4222Z" fill="black"/>
</g>
<defs>
<clipPath id="clip0_2604_12072">
<rect width="24.8889" height="24.8889" fill="white" transform="translate(0.554688 0.555664)"/>
</clipPath>
</defs>
</svg>
