<svg width="20" height="20" viewBox="0 0 20 20" fill="none" xmlns="http://www.w3.org/2000/svg">
<path d="M15.833 10.8333H4.16634C3.94533 10.8333 3.73337 10.7455 3.57709 10.5892C3.42081 10.4329 3.33301 10.221 3.33301 9.99996C3.33301 9.77895 3.42081 9.56698 3.57709 9.4107C3.73337 9.25442 3.94533 9.16663 4.16634 9.16663H15.833C16.054 9.16663 16.266 9.25442 16.4223 9.4107C16.5785 9.56698 16.6663 9.77895 16.6663 9.99996C16.6663 10.221 16.5785 10.4329 16.4223 10.5892C16.266 10.7455 16.054 10.8333 15.833 10.8333Z" fill="#0F1623"/>
<path d="M10.0003 16.6667C9.77931 16.6667 9.56735 16.5789 9.41107 16.4226C9.25479 16.2663 9.16699 16.0544 9.16699 15.8334V4.16671C9.16699 3.94569 9.25479 3.73373 9.41107 3.57745C9.56735 3.42117 9.77931 3.33337 10.0003 3.33337C10.2213 3.33337 10.4333 3.42117 10.5896 3.57745C10.7459 3.73373 10.8337 3.94569 10.8337 4.16671V15.8334C10.8337 16.0544 10.7459 16.2663 10.5896 16.4226C10.4333 16.5789 10.2213 16.6667 10.0003 16.6667Z" fill="#0F1623"/>
</svg>
