<svg width="14" height="12" viewBox="0 0 14 12" fill="none" xmlns="http://www.w3.org/2000/svg">
<path d="M14 5.74815C14 6.07031 13.7606 6.33656 13.45 6.3787L13.3636 6.38451L2.17721 6.384L6.21853 10.4088C6.46758 10.6568 6.46845 11.0597 6.22047 11.3088C5.99504 11.5352 5.64155 11.5565 5.39203 11.3722L5.32052 11.3107L0.187188 6.19943C0.154359 6.16674 0.125845 6.13137 0.101645 6.09401C0.0948094 6.08276 0.0878515 6.07126 0.081255 6.05952C0.0751877 6.04946 0.069705 6.03902 0.0645325 6.02846C0.0573486 6.01309 0.0503294 5.99722 0.0439567 5.98102C0.0387786 5.96853 0.0344551 5.95638 0.0305114 5.94414C0.025823 5.92896 0.0212676 5.91278 0.0173493 5.89635C0.0144363 5.88488 0.0121293 5.87384 0.0101169 5.86276C0.00728705 5.84628 0.00487829 5.82922 0.0031596 5.81195C0.0016756 5.79878 0.000782367 5.78574 0.000288634 5.77268C0.000161022 5.76476 5.66244e-07 5.75647 5.66244e-07 5.74815L0.000319382 5.72349C0.000807176 5.711 0.00166018 5.69853 0.00287962 5.68608L5.66244e-07 5.74815C5.66244e-07 5.70799 0.00372023 5.6687 0.0108338 5.6306C0.0124836 5.62151 0.0144493 5.61217 0.0166259 5.60287C0.0211464 5.58371 0.0263704 5.56526 0.0323855 5.54718C0.0353379 5.53819 0.0387772 5.52859 0.0424533 5.51906C0.0498898 5.49991 0.0579725 5.48166 0.0668646 5.46388C0.0709955 5.45552 0.0756222 5.44677 0.0804669 5.4381C0.0884193 5.42397 0.0966116 5.41054 0.105275 5.39744C0.111387 5.38818 0.118155 5.37853 0.125223 5.36904L0.13073 5.36171C0.147874 5.33931 0.166474 5.31808 0.186387 5.29817L0.187151 5.29758L5.32048 0.185456C5.56951 -0.0625445 5.97244 -0.0617103 6.22044 0.187319C6.44589 0.41371 6.4657 0.767284 6.28034 1.01603L6.21857 1.08727L2.17891 5.11127L13.3636 5.11178C13.7151 5.11178 14 5.39669 14 5.74815Z" fill="black"/>
</svg>
