<svg width="16" height="16" viewBox="0 0 16 16" fill="none" xmlns="http://www.w3.org/2000/svg">
<path fill-rule="evenodd" clip-rule="evenodd" d="M10.9949 0.0371094C11.3016 0.0371094 11.5505 0.286002 11.5505 0.592673L11.5508 1.22069C12.6324 1.29484 13.5307 1.66532 14.1664 2.3024C14.8605 2.99945 15.2257 4.00169 15.222 5.20393V11.9618C15.222 14.43 13.6546 15.9634 11.1323 15.9634H4.86704C2.34478 15.9634 0.777344 14.4085 0.777344 11.9055V5.20245C0.777344 2.87441 2.17518 1.38005 4.45495 1.22095L4.4554 0.592673C4.4554 0.286002 4.70429 0.0371094 5.01096 0.0371094C5.31764 0.0371094 5.56653 0.286002 5.56653 0.592673L5.56631 1.20676H10.439L10.4393 0.592673C10.4393 0.286002 10.6882 0.0371094 10.9949 0.0371094ZM14.1109 6.63277H1.88847V11.9055C1.88847 13.8063 2.94627 14.8522 4.86704 14.8522H11.1323C13.0531 14.8522 14.1109 13.8255 14.1109 11.9618L14.1109 6.63277ZM11.2969 11.2938C11.6036 11.2938 11.8525 11.5427 11.8525 11.8494C11.8525 12.156 11.6036 12.4049 11.2969 12.4049C10.9902 12.4049 10.7384 12.156 10.7384 11.8494C10.7384 11.5427 10.9836 11.2938 11.2902 11.2938H11.2969ZM8.00982 11.2938C8.3165 11.2938 8.56539 11.5427 8.56539 11.8494C8.56539 12.156 8.3165 12.4049 8.00982 12.4049C7.70315 12.4049 7.4513 12.156 7.4513 11.8494C7.4513 11.5427 7.69649 11.2938 8.00316 11.2938H8.00982ZM4.71585 11.2938C5.02252 11.2938 5.27141 11.5427 5.27141 11.8494C5.27141 12.156 5.02252 12.4049 4.71585 12.4049C4.40918 12.4049 4.15658 12.156 4.15658 11.8494C4.15658 11.5427 4.40251 11.2938 4.70918 11.2938H4.71585ZM11.2969 8.41472C11.6036 8.41472 11.8525 8.66361 11.8525 8.97028C11.8525 9.27695 11.6036 9.52585 11.2969 9.52585C10.9902 9.52585 10.7384 9.27695 10.7384 8.97028C10.7384 8.66361 10.9836 8.41472 11.2902 8.41472H11.2969ZM8.00982 8.41472C8.3165 8.41472 8.56539 8.66361 8.56539 8.97028C8.56539 9.27695 8.3165 9.52585 8.00982 9.52585C7.70315 9.52585 7.4513 9.27695 7.4513 8.97028C7.4513 8.66361 7.69649 8.41472 8.00316 8.41472H8.00982ZM4.71585 8.41472C5.02252 8.41472 5.27141 8.66361 5.27141 8.97028C5.27141 9.27695 5.02252 9.52585 4.71585 9.52585C4.40918 9.52585 4.15658 9.27695 4.15658 8.97028C4.15658 8.66361 4.40251 8.41472 4.70918 8.41472H4.71585ZM10.439 2.31788H5.56631L5.56653 3.03049C5.56653 3.33716 5.31764 3.58605 5.01096 3.58605C4.70429 3.58605 4.4554 3.33716 4.4554 3.03049L4.45501 2.3347C2.79555 2.4741 1.88847 3.48002 1.88847 5.20245V5.52164H14.1109L14.1109 5.20245C14.1138 4.28762 13.8679 3.5765 13.3798 3.0876C12.9512 2.65782 12.3248 2.40115 11.5511 2.33506L11.5505 3.03049C11.5505 3.33716 11.3016 3.58605 10.9949 3.58605C10.6882 3.58605 10.4393 3.33716 10.4393 3.03049L10.439 2.31788Z" fill="#6A768A"/>
</svg>
