<svg width="20" height="20" viewBox="0 0 20 20" fill="none" xmlns="http://www.w3.org/2000/svg">
<path d="M2.50016 3.75H3.22225C5.19653 3.74999 7.12664 3.16558 8.76933 2.07042L10.0002 1.25L11.231 2.07042C12.8737 3.16558 14.8038 3.74999 16.7781 3.75H17.5002C17.6107 3.75 17.7167 3.7939 17.7948 3.87204C17.8729 3.95018 17.9168 4.05616 17.9168 4.16667V8.54583C17.9168 10.3676 17.4192 12.1547 16.4776 13.7142C15.5361 15.2738 14.1864 16.5465 12.5743 17.395L10.0002 18.75L7.426 17.395C5.81391 16.5465 4.46423 15.2738 3.52268 13.7142C2.58114 12.1547 2.0835 10.3676 2.0835 8.54583V4.16667C2.0835 4.05616 2.12739 3.95018 2.20554 3.87204C2.28368 3.7939 2.38966 3.75 2.50016 3.75Z" fill="#9FCFFF"/>
<path d="M8.2025 15.7399C6.86654 15.0637 5.74359 14.0311 4.95781 12.7565C4.17203 11.4819 3.75403 10.0148 3.75 8.51742V5.83075C3.75041 5.72521 3.79085 5.62376 3.86317 5.54689C3.93548 5.47001 4.03427 5.42344 4.13958 5.41658C6.12027 5.26678 8.03096 4.61879 9.69417 3.53284L10 3.33325L10.3063 3.53284C11.9693 4.61886 13.8798 5.26685 15.8604 5.41658C15.9656 5.42343 16.0643 5.46989 16.1366 5.54658C16.2088 5.62328 16.2494 5.72452 16.25 5.82992V8.51658C16.2462 10.014 15.8283 11.4812 15.0426 12.7559C14.2569 14.0306 13.1339 15.0632 11.7979 15.7395L10 16.6666L8.2025 15.7399Z" fill="#4595F4"/>
<path d="M6.54436 10.2945L8.87186 12.622C8.94999 12.7001 9.05596 12.744 9.16644 12.744C9.27693 12.744 9.38289 12.7001 9.46102 12.622L13.4552 8.62785C13.5333 8.54972 13.5772 8.44376 13.5772 8.33327C13.5772 8.22279 13.5333 8.11682 13.4552 8.03869L12.7944 7.37785C12.7162 7.29974 12.6103 7.25586 12.4998 7.25586C12.3893 7.25586 12.2833 7.29974 12.2052 7.37785L9.16644 10.4166L7.79436 9.04452C7.71622 8.96641 7.61026 8.92253 7.49977 8.92253C7.38929 8.92253 7.28333 8.96641 7.20519 9.04452L6.54436 9.70535C6.46624 9.78349 6.42236 9.88945 6.42236 9.99994C6.42236 10.1104 6.46624 10.2164 6.54436 10.2945Z" fill="white" stroke="#4595F4" stroke-width="0.5" stroke-linejoin="round"/>
</svg>
