<svg width="25" height="24" viewBox="0 0 25 24" fill="none" xmlns="http://www.w3.org/2000/svg">
<path d="M13.2437 12C14.4863 12 15.4937 13.0074 15.4937 14.25L15.4925 15.3725C15.6468 18.1274 13.525 19.5012 9.59029 19.5012C5.66828 19.5012 3.5 18.1454 3.5 15.4119V14.25C3.5 13.0074 4.50736 12 5.75 12H13.2437ZM19.2446 12C20.4872 12 21.4946 13.0074 21.4946 14.25L21.4935 15.0399C21.6291 17.5111 19.7543 18.75 16.3274 18.75C15.8622 18.75 15.4249 18.7273 15.0165 18.682C15.8215 17.9386 16.2522 16.9297 16.2507 15.6549L16.2413 15.3306L16.2437 14.25C16.2437 13.3536 15.8506 12.5491 15.2273 11.9994L19.2446 12ZM9.5 3C11.5714 3 13.2506 4.6792 13.2506 6.75061C13.2506 8.82201 11.5714 10.5012 9.5 10.5012C7.4286 10.5012 5.74939 8.82201 5.74939 6.75061C5.74939 4.6792 7.4286 3 9.5 3ZM17 4.5C18.6569 4.5 20 5.84315 20 7.5C20 9.15685 18.6569 10.5 17 10.5C15.3431 10.5 14 9.15685 14 7.5C14 5.84315 15.3431 4.5 17 4.5Z" fill="white"/>
</svg>
