<svg width="103" height="19" viewBox="0 0 103 19" fill="none" xmlns="http://www.w3.org/2000/svg">
<path d="M0 4C0 1.79086 1.79086 0 4 0H99C101.209 0 103 1.79086 103 4V15C103 17.2091 101.209 19 99 19H4C1.79086 19 0 17.2091 0 15V4Z" fill="url(#paint0_linear_911_2963)"/>
<g filter="url(#filter0_i_911_2963)">
<path d="M11.6665 10.8442C10.1375 11.1842 8.93372 12.3877 8.59396 13.9169C8.58944 13.9392 8.57737 13.9592 8.55979 13.9735C8.54222 13.9879 8.52022 13.9957 8.49752 13.9957C8.47482 13.9957 8.45282 13.9879 8.43524 13.9735C8.41767 13.9592 8.4056 13.9392 8.40108 13.9169C8.06114 12.3877 6.85758 11.184 5.32839 10.8442C5.30624 10.8396 5.28635 10.8275 5.27207 10.81C5.25779 10.7924 5.25 10.7705 5.25 10.7479C5.25 10.7252 5.25779 10.7033 5.27207 10.6858C5.28635 10.6682 5.30624 10.6561 5.32839 10.6515C6.85758 10.3116 8.06132 9.10801 8.40108 7.57882C8.4056 7.55658 8.41767 7.53658 8.43524 7.52221C8.45282 7.50785 8.47482 7.5 8.49752 7.5C8.52022 7.5 8.54222 7.50785 8.55979 7.52221C8.57737 7.53658 8.58944 7.55658 8.59396 7.57882C8.93372 9.10801 10.1375 10.3118 11.6665 10.6515C11.6886 10.6561 11.7085 10.6682 11.7228 10.6858C11.7371 10.7033 11.7449 10.7252 11.7449 10.7479C11.7449 10.7705 11.7371 10.7924 11.7228 10.81C11.7085 10.8275 11.6886 10.8396 11.6665 10.8442Z" fill="#FACB53"/>
</g>
<g filter="url(#filter1_i_911_2963)">
<path d="M12.9098 7.39711C12.5522 7.5045 12.2269 7.69889 11.9628 7.96289C11.6988 8.2269 11.5044 8.55225 11.3969 8.90984C11.3912 8.93036 11.3789 8.94844 11.362 8.96132C11.345 8.9742 11.3243 8.98118 11.303 8.98118C11.2817 8.98118 11.261 8.9742 11.244 8.96132C11.2271 8.94844 11.2148 8.93036 11.2091 8.90984C11.1017 8.55228 10.9072 8.22693 10.6432 7.96293C10.3792 7.69893 10.0539 7.50452 9.69634 7.39711C9.67582 7.39139 9.65774 7.37911 9.64486 7.36215C9.63197 7.34519 9.625 7.32448 9.625 7.30318C9.625 7.28188 9.63197 7.26117 9.64486 7.2442C9.65774 7.22724 9.67582 7.21496 9.69634 7.20925C10.0539 7.10182 10.3793 6.90738 10.6433 6.64335C10.9073 6.37932 11.1017 6.05393 11.2091 5.69634C11.2148 5.67582 11.2271 5.65774 11.244 5.64486C11.261 5.63197 11.2817 5.625 11.303 5.625C11.3243 5.625 11.345 5.63197 11.362 5.64486C11.3789 5.65774 11.3912 5.67582 11.3969 5.69634C11.5044 6.05392 11.6988 6.37928 11.9628 6.64328C12.2269 6.90728 12.5522 7.10168 12.9098 7.20907C12.9304 7.21473 12.9486 7.227 12.9615 7.24398C12.9745 7.26097 12.9815 7.28173 12.9815 7.30309C12.9815 7.32444 12.9745 7.34521 12.9615 7.3622C12.9486 7.37918 12.9304 7.39145 12.9098 7.39711Z" fill="#FACB53"/>
</g>
<path d="M18.68 13V6H21.25C21.81 6 22.27 6.09667 22.63 6.29C22.9967 6.47667 23.27 6.73333 23.45 7.06C23.63 7.38 23.72 7.73667 23.72 8.13C23.72 8.55667 23.6067 8.94667 23.38 9.3C23.16 9.65333 22.8133 9.91 22.34 10.07L23.79 13H22.32L21.02 10.24H19.96V13H18.68ZM19.96 9.3H21.17C21.5967 9.3 21.91 9.19667 22.11 8.99C22.31 8.78333 22.41 8.51 22.41 8.17C22.41 7.83667 22.31 7.57 22.11 7.37C21.9167 7.17 21.6 7.07 21.16 7.07H19.96V9.3ZM25.0105 13V6H29.5805V7.03H26.2905V8.95H29.2805V9.95H26.2905V11.97H29.5805V13H25.0105ZM34.0617 13.12C33.3551 13.12 32.7484 12.97 32.2417 12.67C31.7351 12.3633 31.3451 11.94 31.0717 11.4C30.7984 10.8533 30.6617 10.2233 30.6617 9.51C30.6617 8.79667 30.7984 8.16667 31.0717 7.62C31.3451 7.07333 31.7351 6.64667 32.2417 6.34C32.7484 6.03333 33.3551 5.88 34.0617 5.88C34.9017 5.88 35.5884 6.09 36.1217 6.51C36.6617 6.92333 36.9984 7.50667 37.1317 8.26H35.7217C35.6351 7.88 35.4484 7.58333 35.1617 7.37C34.8817 7.15 34.5084 7.04 34.0417 7.04C33.3951 7.04 32.8884 7.26 32.5217 7.7C32.1551 8.14 31.9717 8.74333 31.9717 9.51C31.9717 10.2767 32.1551 10.88 32.5217 11.32C32.8884 11.7533 33.3951 11.97 34.0417 11.97C34.5084 11.97 34.8817 11.87 35.1617 11.67C35.4484 11.4633 35.6351 11.18 35.7217 10.82H37.1317C36.9984 11.54 36.6617 12.1033 36.1217 12.51C35.5884 12.9167 34.9017 13.12 34.0617 13.12ZM41.6448 13.12C40.9448 13.12 40.3314 12.9667 39.8048 12.66C39.2848 12.3533 38.8748 11.93 38.5748 11.39C38.2814 10.8433 38.1348 10.2133 38.1348 9.5C38.1348 8.78667 38.2814 8.16 38.5748 7.62C38.8748 7.07333 39.2848 6.64667 39.8048 6.34C40.3314 6.03333 40.9448 5.88 41.6448 5.88C42.3381 5.88 42.9481 6.03333 43.4748 6.34C44.0014 6.64667 44.4114 7.07333 44.7048 7.62C44.9981 8.16 45.1448 8.78667 45.1448 9.5C45.1448 10.2133 44.9981 10.8433 44.7048 11.39C44.4114 11.93 44.0014 12.3533 43.4748 12.66C42.9481 12.9667 42.3381 13.12 41.6448 13.12ZM41.6448 11.97C42.3114 11.97 42.8414 11.75 43.2348 11.31C43.6348 10.87 43.8348 10.2667 43.8348 9.5C43.8348 8.73333 43.6348 8.13 43.2348 7.69C42.8414 7.25 42.3114 7.03 41.6448 7.03C40.9781 7.03 40.4448 7.25 40.0448 7.69C39.6448 8.13 39.4448 8.73333 39.4448 9.5C39.4448 10.2667 39.6448 10.87 40.0448 11.31C40.4448 11.75 40.9781 11.97 41.6448 11.97ZM46.3749 13V6H47.8949L50.1249 10.44L52.3249 6H53.8449V13H52.5649V8.17L50.6149 12H49.6049L47.6549 8.17V13H46.3749ZM55.303 13V6H56.823L59.053 10.44L61.253 6H62.773V13H61.493V8.17L59.543 12H58.533L56.583 8.17V13H55.303ZM64.2312 13V6H68.8012V7.03H65.5112V8.95H68.5012V9.95H65.5112V11.97H68.8012V13H64.2312ZM70.1124 13V6H71.3924L74.6824 10.93V6H75.9624V13H74.6824L71.3924 8.08V13H70.1124ZM77.4195 13V6H79.8095C80.6295 6 81.3028 6.14667 81.8295 6.44C82.3628 6.72667 82.7561 7.13333 83.0095 7.66C83.2695 8.18 83.3995 8.79333 83.3995 9.5C83.3995 10.2067 83.2695 10.8233 83.0095 11.35C82.7561 11.87 82.3628 12.2767 81.8295 12.57C81.3028 12.8567 80.6295 13 79.8095 13H77.4195ZM78.6995 11.9H79.7495C80.3361 11.9 80.7995 11.8067 81.1395 11.62C81.4795 11.4267 81.7228 11.1533 81.8695 10.8C82.0161 10.44 82.0895 10.0067 82.0895 9.5C82.0895 9 82.0161 8.57 81.8695 8.21C81.7228 7.85 81.4795 7.57333 81.1395 7.38C80.7995 7.18667 80.3361 7.09 79.7495 7.09H78.6995V11.9ZM84.6288 13V6H89.1988V7.03H85.9088V8.95H88.8988V9.95H85.9088V11.97H89.1988V13H84.6288ZM90.5101 13V6H92.9001C93.7201 6 94.3934 6.14667 94.9201 6.44C95.4534 6.72667 95.8467 7.13333 96.1001 7.66C96.3601 8.18 96.4901 8.79333 96.4901 9.5C96.4901 10.2067 96.3601 10.8233 96.1001 11.35C95.8467 11.87 95.4534 12.2767 94.9201 12.57C94.3934 12.8567 93.7201 13 92.9001 13H90.5101ZM91.7901 11.9H92.8401C93.4267 11.9 93.8901 11.8067 94.2301 11.62C94.5701 11.4267 94.8134 11.1533 94.9601 10.8C95.1067 10.44 95.1801 10.0067 95.1801 9.5C95.1801 9 95.1067 8.57 94.9601 8.21C94.8134 7.85 94.5701 7.57333 94.2301 7.38C93.8901 7.18667 93.4267 7.09 92.8401 7.09H91.7901V11.9Z" fill="white"/>
<defs>
<filter id="filter0_i_911_2963" x="5.25" y="7.5" width="6.49463" height="6.49585" filterUnits="userSpaceOnUse" color-interpolation-filters="sRGB">
<feFlood flood-opacity="0" result="BackgroundImageFix"/>
<feBlend mode="normal" in="SourceGraphic" in2="BackgroundImageFix" result="shape"/>
<feColorMatrix in="SourceAlpha" type="matrix" values="0 0 0 0 0 0 0 0 0 0 0 0 0 0 0 0 0 0 127 0" result="hardAlpha"/>
<feOffset dx="-0.5" dy="-0.2"/>
<feComposite in2="hardAlpha" operator="arithmetic" k2="-1" k3="1"/>
<feColorMatrix type="matrix" values="0 0 0 0 1 0 0 0 0 0.7 0 0 0 0 0.25 0 0 0 1 0"/>
<feBlend mode="normal" in2="shape" result="effect1_innerShadow_911_2963"/>
</filter>
<filter id="filter1_i_911_2963" x="9.625" y="5.625" width="3.35645" height="3.3562" filterUnits="userSpaceOnUse" color-interpolation-filters="sRGB">
<feFlood flood-opacity="0" result="BackgroundImageFix"/>
<feBlend mode="normal" in="SourceGraphic" in2="BackgroundImageFix" result="shape"/>
<feColorMatrix in="SourceAlpha" type="matrix" values="0 0 0 0 0 0 0 0 0 0 0 0 0 0 0 0 0 0 127 0" result="hardAlpha"/>
<feOffset dx="-0.5" dy="-0.3"/>
<feComposite in2="hardAlpha" operator="arithmetic" k2="-1" k3="1"/>
<feColorMatrix type="matrix" values="0 0 0 0 1 0 0 0 0 0.7 0 0 0 0 0.25 0 0 0 1 0"/>
<feBlend mode="normal" in2="shape" result="effect1_innerShadow_911_2963"/>
</filter>
<linearGradient id="paint0_linear_911_2963" x1="1.45755" y1="7.86874e-06" x2="103.182" y2="17.9718" gradientUnits="userSpaceOnUse">
<stop stop-color="#5AAF58"/>
<stop offset="1" stop-color="#22903A"/>
</linearGradient>
</defs>
</svg>
