<svg width="20" height="21" viewBox="0 0 20 21" fill="none" xmlns="http://www.w3.org/2000/svg">
<path fill-rule="evenodd" clip-rule="evenodd" d="M8.27796 0C12.8421 0 16.5546 3.7125 16.5546 8.27662C16.5546 10.43 15.7282 12.3939 14.3759 13.8679L19.8131 18.9126C20.0622 19.1616 20.063 19.5645 19.814 19.8135C19.6899 19.9393 19.5259 20.0013 19.3627 20.0013C19.2003 20.0013 19.0372 19.9393 18.9122 19.8152L13.4429 14.7403C12.0262 15.8749 10.23 16.5541 8.27796 16.5541C3.71383 16.5541 0.000488281 12.8407 0.000488281 8.27662C0.000488281 3.7125 3.71383 0 8.27796 0ZM8.27796 1.2749C4.41673 1.2749 1.27538 4.41539 1.27538 8.27662C1.27538 12.1379 4.41673 15.2792 8.27796 15.2792C12.1383 15.2792 15.2797 12.1379 15.2797 8.27662C15.2797 4.41539 12.1383 1.2749 8.27796 1.2749Z" fill="#6A768A"/>
</svg>
