<svg width="16" height="16" viewBox="0 0 16 16" fill="none" xmlns="http://www.w3.org/2000/svg">
<path d="M14.471 7.52877L9.13767 2.19544C9.04444 2.10223 8.92566 2.03876 8.79636 2.01305C8.66706 1.98733 8.53304 2.00054 8.41124 2.05098C8.28944 2.10143 8.18533 2.18686 8.11207 2.29646C8.03882 2.40607 7.9997 2.53494 7.99967 2.66677V5.0301C6.17854 5.19863 4.48583 6.04068 3.2528 7.39145C2.01978 8.74223 1.33519 10.5045 1.33301 12.3334V13.3334C1.33311 13.4718 1.37628 13.6067 1.45652 13.7195C1.53677 13.8322 1.65011 13.9172 1.78082 13.9627C1.91154 14.0081 2.05316 14.0117 2.18603 13.973C2.3189 13.9343 2.43644 13.8553 2.52234 13.7468C3.17547 12.9701 3.97685 12.3313 4.87964 11.8679C5.78243 11.4044 6.76854 11.1255 7.78034 11.0474C7.81367 11.0434 7.89701 11.0368 7.99967 11.0301V13.3334C7.9997 13.4653 8.03882 13.5941 8.11207 13.7037C8.18533 13.8133 8.28944 13.8988 8.41124 13.9492C8.53304 13.9997 8.66706 14.0129 8.79636 13.9872C8.92566 13.9614 9.04444 13.898 9.13767 13.8048L14.471 8.47144C14.596 8.34642 14.6662 8.17688 14.6662 8.0001C14.6662 7.82333 14.596 7.65379 14.471 7.52877ZM9.33301 11.7241V10.3334C9.33301 10.1566 9.26277 9.98706 9.13775 9.86203C9.01272 9.73701 8.84315 9.66677 8.66634 9.66677C8.49634 9.66677 7.80234 9.7001 7.62501 9.72344C5.82825 9.88899 4.11795 10.5716 2.70101 11.6888C2.86184 10.2184 3.55937 8.859 4.66004 7.87088C5.76072 6.88275 7.18719 6.33533 8.66634 6.33344C8.84315 6.33344 9.01272 6.2632 9.13775 6.13817C9.26277 6.01315 9.33301 5.84358 9.33301 5.66677V4.2761L13.057 8.0001L9.33301 11.7241Z" fill="black" stroke="white" stroke-width="0.4"/>
</svg>
