<svg width="20" height="20" viewBox="0 0 20 20" fill="none" xmlns="http://www.w3.org/2000/svg">
<path d="M2.49967 3.75H3.22176C5.19604 3.74999 7.12615 3.16558 8.76884 2.07042L9.99967 1.25L11.2305 2.07042C12.8732 3.16558 14.8033 3.74999 16.7776 3.75H17.4997C17.6102 3.75 17.7162 3.7939 17.7943 3.87204C17.8724 3.95018 17.9163 4.05616 17.9163 4.16667V8.54583C17.9163 10.3676 17.4187 12.1547 16.4772 13.7142C15.5356 15.2738 14.1859 16.5465 12.5738 17.395L9.99967 18.75L7.42551 17.395C5.81342 16.5465 4.46374 15.2738 3.52219 13.7142C2.58065 12.1547 2.08301 10.3676 2.08301 8.54583V4.16667C2.08301 4.05616 2.12691 3.95018 2.20505 3.87204C2.28319 3.7939 2.38917 3.75 2.49967 3.75Z" fill="#D6DAE0"/>
<path d="M8.2025 15.7399C6.86654 15.0637 5.74359 14.0311 4.95781 12.7565C4.17203 11.4819 3.75403 10.0148 3.75 8.51742V5.83075C3.75041 5.72521 3.79085 5.62376 3.86317 5.54689C3.93548 5.47001 4.03427 5.42344 4.13958 5.41658C6.12027 5.26678 8.03096 4.61879 9.69417 3.53284L10 3.33325L10.3063 3.53284C11.9693 4.61886 13.8798 5.26685 15.8604 5.41658C15.9656 5.42343 16.0643 5.46989 16.1366 5.54658C16.2088 5.62328 16.2494 5.72452 16.25 5.82992V8.51658C16.2462 10.014 15.8283 11.4812 15.0426 12.7559C14.2569 14.0306 13.1339 15.0632 11.7979 15.7395L10 16.6666L8.2025 15.7399Z" fill="#6A768A"/>
<path d="M7.74902 12.0193L12.249 7.51929" stroke="white" stroke-width="1.3"/>
<path d="M12.249 12.0193L7.74902 7.51929" stroke="white" stroke-width="1.3"/>
</svg>
